<?xml version="1.0" encoding="UTF-8"?>
<!DOCTYPE svg PUBLIC "-//W3C//DTD SVG 1.1//EN" "http://www.w3.org/Graphics/SVG/1.1/DTD/svg11.dtd">
<!-- Creator: CorelDRAW X6 -->
<svg xmlns="http://www.w3.org/2000/svg" xml:space="preserve" width="161px" height="160px" version="1.1" style="shape-rendering:geometricPrecision; text-rendering:geometricPrecision; image-rendering:optimizeQuality; fill-rule:evenodd; clip-rule:evenodd"
viewBox="0 0 161 160"
 xmlns:xlink="http://www.w3.org/1999/xlink">
 <defs>
  <style type="text/css">
   <![CDATA[
    .fil0 {fill:#281f15;fill-rule:nonzero}
   ]]>
  </style>
 </defs>
 <g id="Layer_x0020_1">
  <metadata id="CorelCorpID_0Corel-Layer"/>
  <g id="_123968304">
   <g>
    <path class="fil0" d="M49 76l-2 3c3,0 5,0 7,1 2,0 4,0 6,1 2,0 4,1 5,2 5,2 7,4 7,8 0,2 -1,4 -3,6 -2,2 -4,4 -8,6 -3,1 -6,3 -9,4 -4,1 -7,1 -10,1 -4,0 -8,-1 -10,-3 -3,-1 -4,-4 -4,-7 0,-2 1,-4 2,-7 2,-3 4,-6 7,-10 -2,0 -4,-1 -5,-1 -1,-1 -1,-2 -1,-3 0,-1 0,-1 0,-1 1,-1 1,-1 2,-1 0,0 2,-1 4,-1 2,0 4,0 7,-1 3,-4 6,-7 9,-9 2,-2 5,-3 8,-3 0,0 1,0 1,0 0,0 0,0 0,0 0,0 0,0 -1,1 0,1 -1,2 -3,4 -1,2 -3,4 -5,6 5,-1 10,-1 14,-2 3,-1 6,-3 8,-4 2,-1 2,-3 2,-4 0,-3 -1,-4 -2,-5 -2,-1 -5,-1 -9,-1 -3,0 -5,0 -8,0 -3,1 -6,1 -8,2 -2,1 -4,1 -6,2 -2,0 -3,1 -3,1 0,0 0,0 0,1 2,0 3,0 3,1 0,0 -3,1 -7,3 -5,1 -8,2 -9,2 -2,0 -2,-1 -2,-2 0,-1 1,-4 4,-7 2,-4 4,-6 6,-7 1,0 3,-1 5,-1 3,-1 5,-2 8,-2 3,-1 7,-2 10,-2 3,-1 6,-1 8,-1 6,0 10,1 13,3 3,2 4,5 4,8 0,2 -1,4 -2,6 -1,2 -3,4 -6,5 -3,2 -6,4 -11,5 -4,1 -10,2 -16,3zm-4 6l0 0c-2,2 -3,3 -5,5 -1,1 -2,2 -2,3 -1,1 -1,2 -1,3 0,1 1,3 2,4 2,1 4,1 7,1 2,0 5,0 8,-1 3,-1 5,-2 7,-4 2,-1 3,-2 3,-4 0,-1 0,-2 -2,-3 -1,-1 -3,-2 -6,-2 -3,-1 -7,-2 -11,-2z"/>
    <path class="fil0" d="M97 92l0 4c-2,3 -5,6 -8,8 -2,2 -4,3 -6,3 -3,0 -5,-1 -6,-4 -1,-3 -2,-5 -2,-8 0,-2 1,-3 1,-4 0,-1 0,-2 1,-2 0,-1 1,-2 2,-4 4,-6 8,-10 11,-10 2,0 3,1 3,2 0,1 -1,3 -2,5 -1,2 -2,3 -3,4 -3,3 -4,5 -5,6 -1,1 -1,2 -1,3 0,1 0,2 1,3 1,0 2,1 3,1 2,0 3,-1 5,-2 2,-1 4,-2 6,-5zm-3 -20l0 0c0,0 -1,0 -2,-1 0,0 -1,-1 -1,-2 0,-1 1,-3 2,-4 1,-2 3,-3 4,-3 1,0 2,0 2,1 1,1 1,1 1,2 0,2 0,3 -2,5 -1,1 -2,2 -4,2z"/>
    <path class="fil0" d="M102 84c5,-4 9,-7 14,-9 4,-2 7,-3 10,-3 0,0 1,0 1,1 1,0 1,1 2,1 0,1 0,2 0,2 0,1 0,1 0,1 -1,0 -2,1 -3,1 1,1 1,1 1,2 1,1 1,1 1,2 0,0 0,1 0,1 0,1 0,2 -2,4 -1,2 -2,4 -3,4 -1,1 -1,3 -1,4 0,2 1,3 3,3 2,0 6,-2 10,-6l0 3c-8,9 -13,13 -16,13 -1,0 -2,-1 -3,-1 0,-1 -1,-2 -1,-4 0,-2 1,-6 3,-10 -4,5 -8,8 -10,10 -2,2 -4,3 -5,3 -1,0 -2,0 -3,-1 -1,-1 -1,-3 -2,-5 -1,-2 -1,-3 -1,-5 0,-2 0,-3 0,-4 0,-1 1,-2 2,-3 0,-1 2,-2 3,-4zm22 -5l0 0c-8,4 -13,7 -17,9 -3,3 -5,5 -5,8 0,1 0,2 1,2 0,1 1,1 1,1 0,0 1,0 2,0 3,-2 6,-5 9,-8 2,-3 5,-7 9,-12z"/>
   </g>
   <path class="fil0" d="M137 127c-3,-1 -6,-1 -10,0 0,0 0,0 1,0l0 0c1,0 3,1 4,2 0,0 1,1 1,2 1,1 1,1 0,2l0 0c0,1 0,1 0,1l0 0c-2,2 -3,2 -5,2 -1,-1 -2,-3 -3,-4 0,-1 -1,-2 -2,-3 -1,0 -2,-1 -4,-2 -1,0 -1,0 -2,1 -3,0 -5,1 -8,1 0,0 1,0 1,0l0 0c2,1 3,1 4,1l0 0c1,1 2,1 2,2 1,0 1,1 1,2 0,1 0,1 0,1l0 1c-2,2 -3,2 -4,2 -2,0 -3,-1 -5,-3 0,-1 -1,-1 -3,-2 -1,0 -2,-1 -3,-1 -2,1 -4,2 -5,3l-3 2c-1,0 -1,1 -2,1 3,0 6,-1 8,0 2,0 3,1 3,4 -1,2 -2,4 -4,4 -1,0 -3,-1 -5,-2 -1,0 -2,-1 -3,-1 -1,-1 -3,-1 -4,-1 -2,2 -3,3 -3,5 5,0 10,2 14,4 1,1 2,2 3,3 1,1 2,2 2,3 0,0 -1,1 -1,1 -2,2 -5,2 -9,1 -2,0 -5,-1 -7,-3 -2,-1 -4,-3 -5,-4 0,0 0,-1 0,-1 -1,0 -1,1 -1,1 -1,1 -3,3 -5,4 -2,2 -5,3 -7,3 -4,1 -7,1 -9,-1 0,0 -1,-1 -1,-1l0 0c0,-1 1,-2 2,-3 1,-1 2,-2 3,-3 4,-2 9,-4 14,-4 0,-2 -1,-3 -3,-5 -1,0 -3,0 -4,1 -1,0 -2,1 -3,1 -2,1 -4,2 -5,2 -2,0 -3,-2 -4,-4 0,-3 1,-4 3,-4 2,-1 5,0 8,0 -1,0 -1,-1 -2,-1l-3 -2c-1,-1 -3,-2 -5,-3 -1,0 -2,1 -3,1 -2,1 -3,1 -3,2 -2,2 -3,3 -5,3 -1,0 -2,0 -4,-2l0 -1c0,0 0,0 0,-1 0,-1 0,-2 1,-2 0,-1 1,-1 2,-2 1,0 2,0 4,-1l0 0c0,0 1,0 1,0 -3,0 -5,-1 -8,-1 -1,-1 -1,-1 -2,-1 -2,1 -3,2 -4,2 -1,1 -2,2 -2,3 -1,1 -2,3 -3,4 -2,0 -3,0 -5,-2l0 0c0,0 0,0 0,-1 -1,-1 -1,-1 0,-2 0,-1 1,-2 1,-2 1,-1 3,-2 4,-2l0 0c1,0 1,0 1,0 -4,-1 -7,-1 -10,0 -2,1 -3,2 -4,3 -1,1 -1,2 -2,2l0 1c0,1 -1,3 -1,4 -2,2 -3,2 -6,0 0,0 0,0 -1,-1 0,0 0,-1 0,-2l0 0c0,-1 0,-1 1,-2 1,-1 2,-3 4,-4 1,0 1,0 2,-1l0 0 0 0c-2,0 -4,1 -5,1 -1,1 -2,2 -3,2 -2,2 -3,2 -5,3 -1,0 -3,-1 -4,-3 -1,-3 0,-4 2,-5 4,-2 11,-1 14,0 0,0 0,0 0,0 2,0 3,-1 5,-1 -1,0 -1,-1 -2,-2 -1,-1 -2,-1 -3,-2l0 0c-2,0 -3,-1 -4,-2 -2,-1 -2,-2 -1,-5 1,0 1,0 1,-1 1,0 2,0 3,0 0,0 1,0 2,1 1,1 3,2 4,4 1,3 2,5 3,7l0 0c5,0 10,0 16,0 -1,0 -1,-1 -2,-1 -1,-2 -1,-2 -2,-3 -2,-1 -3,-2 -4,-3 -1,-1 -1,-3 1,-5l0 0c0,0 1,0 1,0l0 0c1,-1 2,-1 3,0 0,0 1,1 2,1 0,1 1,3 2,4l0 0c1,3 1,6 2,8l0 0c0,0 1,0 1,0 5,1 10,2 14,4 -1,-1 -1,-1 -1,-2 -1,-1 -1,-2 -2,-3 -2,-1 -3,-3 -3,-4 -1,-2 0,-3 2,-4l0 0c0,0 1,-1 1,-1l0 0c1,0 2,0 3,1 0,0 1,1 1,2 1,1 1,2 1,4l0 0c1,3 1,6 1,8l0 0c2,1 3,2 5,3 1,1 2,1 2,2 2,1 4,2 5,3 0,0 0,-1 0,-1 -1,-2 -1,-3 -2,-3 -1,-2 -2,-4 -2,-5 0,-2 1,-3 3,-4 3,-1 4,0 5,2 1,4 0,10 -1,13l0 1c2,2 3,4 5,7l0 0c1,-3 2,-5 4,-7l0 -1c-1,-3 -2,-9 -1,-13 1,-2 2,-3 5,-2 2,1 3,2 3,4 0,1 -1,3 -2,5 -1,0 -1,1 -2,3 0,0 0,1 0,1 1,-1 3,-2 5,-3 0,-1 1,-1 2,-2 2,-1 3,-2 5,-3l0 0c0,-2 0,-5 1,-8l0 0c0,-2 0,-3 1,-4 0,-1 1,-2 1,-2 1,-1 2,-1 3,-1l0 0c0,0 1,1 1,1l0 0c2,1 3,2 2,4 0,1 -1,3 -3,4 -1,1 -1,2 -2,3 0,1 0,1 -1,2 4,-2 9,-3 14,-4 0,0 1,0 1,0l0 0c1,-2 1,-5 2,-8l0 0c1,-1 2,-3 2,-4 1,0 2,-1 2,-1 1,-1 2,-1 3,0l0 0c0,0 1,0 1,0l0 0c2,2 2,4 1,5 -1,1 -2,2 -4,3 -1,1 -1,1 -2,3 -1,0 -1,1 -2,1 6,0 11,0 16,0l0 0c1,-2 2,-4 3,-7 1,-2 3,-3 4,-4 1,-1 2,-1 2,-1 1,0 2,0 3,0 0,1 0,1 1,1 1,3 1,4 -1,5 -1,1 -2,2 -4,2l0 0c-1,1 -2,1 -3,2 -1,1 -1,2 -2,2 2,0 3,1 5,1 0,0 0,0 0,0 3,-1 10,-2 14,0 2,1 3,2 2,5 -1,2 -3,3 -4,3 -2,-1 -3,-1 -5,-3 -1,0 -2,-1 -3,-2 -1,0 -3,-1 -5,-1l0 0 0 0c1,1 1,1 2,1 2,1 3,3 4,4 1,1 1,1 1,2l0 0c0,1 0,2 0,2 -1,1 -1,1 -1,1 -3,2 -4,2 -6,0 0,-1 -1,-3 -1,-4l0 -1c-1,0 -1,-1 -2,-2 -1,-1 -2,-2 -4,-3zm-59 24c0,-1 0,-1 0,-2 -5,0 -10,2 -13,4 -2,1 -3,2 -4,2 0,1 0,1 0,1 1,2 3,2 6,1 2,-1 4,-2 6,-3 2,-1 4,-2 5,-3zm5 -2c0,1 0,1 0,2 1,1 3,2 5,3 2,1 4,2 6,3 3,1 5,1 6,-1 0,0 0,0 0,-1 -1,0 -2,-1 -4,-2 -3,-2 -8,-4 -13,-4zm54 -116c-3,0 -6,0 -10,0 0,0 0,0 1,0l0 0c1,0 3,-1 4,-2 0,-1 1,-1 1,-2 1,-1 1,-2 0,-3l0 0c0,0 0,0 0,-1l0 0c-2,-1 -3,-2 -5,-1 -1,1 -2,2 -3,4 0,1 -1,2 -2,2 -1,1 -2,2 -4,2 -1,0 -1,0 -2,0 -3,0 -5,-1 -8,-2 0,0 1,0 1,0l0 0c2,0 3,0 4,-1l0 0c1,0 2,0 2,-1 1,-1 1,-1 1,-2 0,-1 0,-1 0,-2l0 0c-2,-2 -3,-2 -4,-2 -2,0 -3,1 -5,3 0,0 -1,1 -3,2 -1,0 -2,0 -3,1 -2,-1 -4,-2 -5,-3l-3 -2c-1,0 -1,-1 -2,-2 3,1 6,2 8,1 2,0 3,-2 3,-4 -1,-3 -2,-4 -4,-4 -1,0 -3,1 -5,2 -1,0 -2,1 -3,1 -1,0 -3,0 -4,0 -2,-1 -3,-2 -3,-4 5,0 10,-2 14,-4 1,-1 2,-2 3,-3 1,-1 2,-2 2,-3 0,-1 -1,-1 -1,-1 -2,-2 -5,-2 -9,-1 -2,0 -5,1 -7,2 -2,2 -4,3 -5,5 0,0 0,1 0,1 -1,0 -1,-1 -1,-1 -1,-2 -3,-3 -5,-5 -2,-1 -5,-2 -7,-2 -4,-1 -7,-1 -9,1 0,0 -1,0 -1,1l0 0c0,1 1,2 2,3 1,1 2,2 3,3 4,2 9,4 14,4 0,2 -1,3 -3,4 -1,0 -3,0 -4,0 -1,0 -2,-1 -3,-1 -2,-1 -4,-2 -5,-2 -2,0 -3,1 -4,4 0,2 1,4 3,4 2,1 5,0 8,-1 -1,1 -1,2 -2,2l-3 2c-1,1 -3,2 -5,3 -1,-1 -2,-1 -3,-1 -2,-1 -3,-2 -3,-2 -2,-2 -3,-3 -5,-3 -1,0 -2,0 -4,2l0 0c0,1 0,1 0,2 0,1 0,1 1,2 0,1 1,1 2,1 1,1 2,1 4,1l0 0c0,0 1,0 1,0 -3,1 -5,2 -8,2 -1,0 -1,0 -2,0 -2,0 -3,-1 -4,-2 -1,0 -2,-1 -2,-2 -1,-2 -2,-3 -3,-4 -2,-1 -3,0 -5,1l0 0c0,1 0,1 0,1 -1,1 -1,2 0,3 0,1 1,1 1,2 1,1 3,2 4,2l0 0c1,0 1,0 1,0 -4,0 -7,0 -10,0 -2,-1 -3,-2 -4,-3 -1,-1 -1,-2 -2,-3l0 0c0,-2 -1,-3 -1,-4 -2,-2 -3,-2 -6,-1 0,1 0,1 -1,1 0,1 0,2 0,3l0 0c0,0 0,1 1,2 1,1 2,2 4,4 1,0 1,0 2,0l0 1 0 -1c-2,0 -4,0 -5,-1 -1,0 -2,-1 -3,-1 -2,-2 -3,-3 -5,-3 -1,0 -3,1 -4,3 -1,3 0,4 2,5 4,1 11,0 14,0 0,0 0,0 0,0 2,0 3,0 5,0 -1,1 -1,2 -2,2 -1,1 -2,2 -3,2l0 0c-2,1 -3,2 -4,2 -2,2 -2,3 -1,6 1,0 1,0 1,0 1,1 2,1 3,1 0,0 1,-1 2,-1 1,-1 3,-3 4,-4 1,-3 2,-6 3,-7l0 0c5,0 10,0 16,-1 -1,1 -1,2 -2,2 -1,1 -1,2 -2,3 -2,1 -3,2 -4,3 -1,1 -1,3 1,4l0 0c0,1 1,1 1,1l0 0c1,0 2,0 3,0 0,0 1,-1 2,-2 0,-1 1,-2 2,-4l0 0c1,-2 1,-5 2,-7l0 0c0,0 1,0 1,0 5,-1 10,-2 14,-4 -1,1 -1,1 -1,2 -1,1 -1,2 -2,3 -2,1 -3,2 -3,4 -1,1 0,3 2,4l0 0c0,0 1,0 1,0l0 0c1,1 2,0 3,0 0,0 1,-1 1,-2 1,-1 1,-3 1,-4l0 0c1,-3 1,-6 1,-8l0 0c2,-1 3,-2 5,-3 1,-1 2,-2 2,-2 2,-1 4,-2 5,-3 0,0 0,1 0,1 -1,1 -1,2 -2,3 -1,2 -2,4 -2,5 0,2 1,3 3,4 3,1 4,0 5,-2 1,-4 0,-11 -1,-14l0 0c2,-2 3,-4 5,-7l0 0c1,3 2,5 4,7l0 0c-1,3 -2,10 -1,14 1,2 2,3 5,2 2,-1 3,-2 3,-4 0,-1 -1,-3 -2,-5 -1,-1 -1,-2 -2,-3 0,0 0,-1 0,-1 1,1 3,2 5,3 0,0 1,1 2,2 2,1 3,2 5,3l0 0c0,2 0,5 1,8l0 0c0,1 0,3 1,4 0,1 1,2 1,2 1,0 2,1 3,0l0 0c0,0 1,0 1,0l0 0c2,-1 3,-3 2,-4 0,-2 -1,-3 -3,-4 -1,-1 -1,-2 -2,-3 0,-1 0,-1 -1,-2 4,2 9,3 14,4 0,0 1,0 1,0l0 0c1,2 1,5 2,7l0 0c1,2 2,3 2,4 1,1 2,2 2,2 1,0 2,0 3,0l0 0c0,0 1,0 1,-1l0 0c2,-1 2,-3 1,-4 -1,-1 -2,-2 -4,-3 -1,-1 -1,-2 -2,-3 -1,0 -1,-1 -2,-2 6,1 11,1 16,1l0 0c1,1 2,4 3,7 1,1 3,3 4,4 1,0 2,1 2,1 1,0 2,0 3,-1 0,0 0,0 1,0 1,-3 1,-4 -1,-6 -1,0 -2,-1 -4,-2l0 0c-1,0 -2,-1 -3,-2 -1,0 -1,-1 -2,-2 2,0 3,0 5,0 0,0 0,0 0,0 3,0 10,1 14,0 2,-1 3,-2 2,-5 -1,-2 -3,-3 -4,-3 -2,0 -3,1 -5,3 -1,0 -2,1 -3,1 -1,1 -3,1 -5,1l0 1 0 -1c1,0 1,0 2,0 2,-2 3,-3 4,-4 1,-1 1,-2 1,-2l0 0c0,-1 0,-2 0,-3 -1,0 -1,0 -1,-1 -3,-1 -4,-1 -6,1 0,1 -1,2 -1,4l0 0c-1,1 -1,2 -2,3 -1,1 -2,2 -4,3zm-59 -24c0,1 0,1 0,1 -5,0 -10,-1 -13,-3 -2,-1 -3,-2 -4,-3 0,0 0,0 0,-1 1,-1 3,-1 6,0 2,0 4,1 6,3 2,1 4,2 5,3zm5 1c0,0 0,0 0,-1 1,-1 3,-2 5,-3 2,-2 4,-3 6,-3 3,-1 5,-1 6,0 0,1 0,1 0,1 -1,1 -2,2 -4,3 -3,2 -8,3 -13,3z"/>
  </g>
 </g>
</svg>
