<?xml version="1.0" encoding="UTF-8"?>
<!DOCTYPE svg PUBLIC "-//W3C//DTD SVG 1.1//EN" "http://www.w3.org/Graphics/SVG/1.1/DTD/svg11.dtd">
<!-- Creator: CorelDRAW X6 -->
<svg xmlns="http://www.w3.org/2000/svg" xml:space="preserve" width="14.41in" height="1.963in" version="1.1" style="shape-rendering:geometricPrecision; text-rendering:geometricPrecision; image-rendering:optimizeQuality; fill-rule:evenodd; clip-rule:evenodd"
viewBox="0 0 14410 1963"
 xmlns:xlink="http://www.w3.org/1999/xlink">
 <defs>
  <style type="text/css">
   <![CDATA[
    .fil0 {fill:#373435;fill-rule:nonzero}
   ]]>
  </style>
 </defs>
 <g id="Layer_x0020_1">
  <metadata id="CorelCorpID_0Corel-Layer"/>
  <g id="_1098740480">
   <path class="fil0" d="M14234 896c-26,61 -52,106 -78,136 -20,24 -49,36 -85,36 -7,0 -14,-1 -22,-2 -32,-5 -59,-22 -80,-52 -12,-17 -21,-33 -27,-49 -10,-27 -13,-62 -8,-107 -18,25 -49,60 -93,107 -25,21 -66,51 -122,87 -30,15 -57,22 -82,22 -23,0 -42,-6 -56,-17 -27,-22 -40,-49 -39,-82 1,-64 28,-122 79,-173 72,-72 146,-112 224,-121 3,-2 8,0 12,7 2,6 0,9 -6,9 -94,35 -161,76 -200,123 -16,15 -35,44 -57,84 -12,35 -12,63 0,84 5,10 14,16 27,18 41,6 79,-2 112,-24 65,-44 116,-83 152,-118 48,-48 85,-112 111,-193 5,-15 12,-18 22,-9 12,11 16,21 11,31 -7,14 -17,37 -32,68 -9,28 -13,47 -12,58 -12,57 -9,108 8,151 2,7 5,14 9,21 9,19 28,33 57,40 25,6 48,1 70,-15 37,-38 68,-81 94,-129 1,-2 3,-3 6,-1 5,3 7,6 5,10z"/>
   <path class="fil0" d="M13400 714c-4,-11 -13,-16 -27,-16 -21,0 -39,9 -55,26 -18,22 -21,51 -8,85 8,20 19,36 35,50 47,-70 66,-118 55,-145zm155 148c-4,5 -12,13 -22,24 -36,27 -67,40 -94,40 -29,0 -58,-7 -86,-21 -87,116 -167,174 -240,174 -22,0 -42,-11 -62,-33 -16,-18 -27,-36 -34,-56 -22,-64 -24,-123 -7,-176 10,-32 37,-72 78,-121 7,-7 17,-12 30,-15 12,-3 25,-3 36,-2 12,2 17,5 17,9 1,4 -15,17 -47,40 -36,26 -61,60 -75,101 -15,45 -9,97 18,156 11,25 26,37 46,37 76,0 146,-44 211,-131 -28,-19 -47,-45 -57,-79 -10,-39 -5,-71 16,-99 22,-27 49,-41 82,-41 20,0 38,10 54,30 10,14 15,24 16,32 4,39 -16,89 -61,150 19,11 37,16 54,16 27,0 53,-7 76,-21 5,-4 17,-14 34,-31 5,-4 10,-4 15,1 6,6 7,12 2,16zm-772 70c-58,-25 -100,-71 -125,-138 -9,-23 -12,-48 -10,-73 -33,17 -62,41 -87,71 -25,29 -43,63 -55,100 -7,24 -7,52 0,86 4,12 12,25 25,38 13,13 29,20 46,22 11,1 22,2 32,2 42,0 78,-12 108,-36 13,-10 34,-34 66,-72zm40 -166c-6,-14 -15,-28 -28,-41 -23,-22 -47,-34 -70,-34 -43,0 -51,34 -25,102 20,54 54,92 101,112 26,-62 33,-108 22,-139zm190 111c-1,5 -5,12 -12,22 -32,34 -63,52 -95,56 -28,3 -44,5 -47,5 -13,-2 -22,-4 -26,-6 -58,96 -132,145 -223,145 -27,0 -54,-6 -83,-18 -19,-8 -36,-24 -50,-49 -13,-22 -20,-44 -22,-65 -5,-63 17,-127 66,-192 37,-49 85,-83 147,-103 10,-11 25,-16 44,-16 51,0 92,22 122,66 7,10 14,25 22,46 16,43 14,95 -7,155 17,2 31,3 41,1 30,-3 59,-19 89,-50 0,0 5,-4 16,-12 5,-4 9,-3 12,2 5,4 6,8 6,13z"/>
   <path class="fil0" d="M12484 908c-38,61 -71,106 -100,133 -50,49 -102,72 -156,69 -32,-2 -55,-9 -71,-20 -24,-16 -39,-40 -44,-70 -10,-58 9,-128 57,-210 -28,-41 -45,-78 -52,-110 -21,37 -59,102 -113,196 -4,7 -9,6 -15,-4 -2,-4 -2,-9 -2,-13 6,-11 33,-61 79,-148 16,-31 34,-66 55,-104 9,-22 23,-25 41,-9 15,13 18,31 8,53 -4,13 -4,28 2,43 4,11 13,28 28,50 15,22 25,39 29,51 7,18 7,29 1,34 -21,16 -37,44 -48,82 -12,38 -15,69 -10,92 5,22 20,33 45,33 55,0 100,-15 135,-43 52,-43 90,-82 114,-115 2,-3 6,-3 12,0 6,3 8,6 5,10z"/>
   <path class="fil0" d="M12327 251c13,11 15,19 7,25 -4,10 -9,18 -14,25 -73,61 -175,90 -303,90 -35,0 -73,-1 -115,-5 -5,23 -11,51 -17,82 -21,114 -41,229 -61,343 -27,143 -63,248 -109,317 -9,15 -22,15 -38,2 -5,-4 -9,-9 -11,-15 -5,-12 -2,-25 9,-40 43,-65 79,-162 109,-291 21,-109 42,-219 63,-329 5,-27 10,-51 13,-72 -19,-4 -37,-7 -55,-8 -37,-5 -128,-22 -273,-53 -112,-25 -198,-37 -258,-37 -87,0 -151,23 -191,70 1,1 24,4 69,11 2,1 5,4 11,8 2,5 1,7 -2,9 -21,10 -47,14 -80,14 -33,0 -53,-7 -59,-22 -5,-11 -3,-23 7,-38 54,-57 135,-86 243,-86 57,0 131,9 224,25 77,15 153,30 230,45 30,3 77,8 140,16 14,-105 38,-184 74,-237l-6 0c10,-14 21,-15 34,-5 14,12 17,25 9,39 -26,42 -48,109 -67,203 47,3 100,2 158,-2 51,-3 127,-33 231,-91 10,-6 20,-4 28,7z"/>
   <path class="fil0" d="M11687 916c-40,66 -72,110 -95,132 -27,25 -56,37 -88,35 -32,-2 -59,-10 -79,-24 -21,-15 -36,-34 -45,-59 -15,-39 -16,-81 -3,-127 7,-28 19,-70 36,-129 4,-13 12,-38 24,-74 3,-7 9,-18 18,-33 8,-14 21,-10 41,13 3,6 3,16 -1,29 -2,6 -5,17 -10,31 -37,98 -58,179 -62,245 -1,7 1,16 4,26 15,37 40,56 76,56 26,0 45,-6 58,-17 45,-36 81,-75 109,-115 2,-3 6,-3 12,0 6,3 8,6 5,11z"/>
   <path class="fil0" d="M11546 477c5,12 7,28 9,50 -7,19 -17,27 -31,24 -23,-5 -37,-19 -40,-42 -1,-1 3,-15 11,-42l9 -16c3,-5 6,-8 9,-10 1,-4 4,-4 9,0 6,4 14,16 24,36z"/>
   <path class="fil0" d="M11365 904c-46,75 -79,122 -100,141 -28,25 -57,38 -86,38 -10,0 -21,-1 -31,-3 -36,-6 -64,-24 -84,-54 -25,-40 -31,-81 -19,-125 30,-113 46,-169 47,-167 -4,-9 -11,-11 -23,-6 -41,16 -85,57 -134,123 -49,66 -77,120 -83,162 -4,28 -13,41 -25,41 -7,0 -14,-8 -20,-25 -5,-10 2,-57 19,-139 17,-78 23,-125 18,-138 -3,-8 -11,-10 -21,-6 -63,23 -117,74 -163,151 -30,55 -60,110 -90,165 -3,6 -9,13 -18,21 -15,14 -30,10 -43,-10 -8,-12 -10,-22 -6,-30l8 -15c23,-43 45,-95 65,-156 20,-62 28,-98 23,-109 -5,-5 -9,-8 -13,-8 -12,0 -36,25 -72,76 -32,47 -63,93 -94,139 -3,6 -9,3 -17,-7 -5,-5 -6,-10 -2,-15 31,-46 62,-93 93,-140 45,-62 79,-95 100,-99 22,-4 43,7 63,34 7,11 8,30 4,57 -2,17 -8,38 -16,64 19,-28 39,-55 58,-81 28,-35 62,-63 104,-86 12,-7 26,-10 40,-10 21,0 36,10 45,29 5,8 6,22 4,42 -6,35 -18,85 -35,149 26,-40 53,-79 80,-118 37,-50 75,-86 116,-110 9,-4 22,-8 38,-10 23,-2 40,7 53,28 5,11 5,25 0,43 -5,25 -17,67 -35,127 -20,51 -22,92 -9,122 10,23 27,37 54,43 30,7 54,2 74,-15 49,-41 87,-82 116,-124 2,-4 6,-4 13,0 5,2 7,6 4,11z"/>
   <path class="fil0" d="M10474 916c-40,66 -72,110 -95,132 -27,25 -56,37 -88,35 -32,-2 -58,-10 -79,-24 -21,-15 -36,-34 -45,-59 -15,-39 -16,-81 -3,-127 7,-28 19,-70 36,-129 4,-13 12,-38 25,-74 2,-7 9,-18 18,-33 7,-14 20,-10 40,13 4,6 3,16 -1,29 -2,6 -5,17 -10,31 -37,98 -58,179 -62,245 -1,7 1,16 5,26 14,37 39,56 75,56 26,0 45,-6 58,-17 45,-36 81,-75 109,-115 2,-3 6,-3 12,0 6,3 8,6 5,11z"/>
   <path class="fil0" d="M10333 477c5,12 8,28 9,50 -7,19 -17,27 -31,24 -23,-5 -37,-19 -40,-42 0,-1 3,-15 11,-42l9 -16c3,-5 6,-8 10,-10 0,-4 3,-4 9,0 5,4 13,16 23,36z"/>
   <path class="fil0" d="M9449 1034c-67,-21 -128,-31 -182,-31 -28,0 -57,3 -85,8 -43,7 -66,25 -70,53 -2,14 -1,27 4,40 8,20 23,35 46,45 19,7 41,11 65,11 63,0 116,-19 159,-59 26,-24 47,-46 63,-67zm480 -762c-127,-145 -255,-212 -384,-200 -57,5 -108,22 -156,52 -61,38 -81,84 -61,137 11,30 38,51 81,62 21,6 45,9 69,9 46,0 86,-9 119,-26 1,-51 2,-97 2,-139 -1,-7 3,-10 11,-9 9,1 14,5 17,14 1,3 2,5 1,9 0,24 0,58 -1,103 19,-16 30,-36 32,-59 0,-9 5,-13 16,-13 10,1 16,7 18,19 9,28 2,52 -21,71 -14,13 -30,24 -45,34 -2,139 -5,240 -11,303 -10,102 -30,205 -62,308 -9,29 -21,56 -35,80 59,20 97,32 114,36 43,12 81,18 115,18 54,1 101,-13 139,-42 88,-66 141,-162 160,-290 17,-114 4,-226 -38,-336 -21,-57 -48,-104 -80,-141zm39 -12c34,44 62,95 84,152 57,148 67,294 30,437 -18,71 -53,132 -105,183 -60,60 -131,90 -212,90 -27,0 -55,-4 -83,-10 -1,0 -60,-20 -177,-60 -56,85 -134,137 -234,156 -62,12 -111,7 -145,-15 -27,-18 -46,-42 -57,-71 -11,-30 -11,-55 0,-77 24,-51 78,-76 162,-76 36,0 81,5 135,15 30,6 64,14 101,25 44,-63 74,-144 90,-240 4,-19 14,-109 30,-271 2,-28 5,-77 9,-148 -36,15 -72,22 -109,22 -32,0 -62,-5 -93,-15 -59,-20 -96,-49 -109,-87 -25,-68 -6,-126 57,-175 55,-41 121,-64 200,-67 79,-4 160,19 240,66 70,42 132,97 186,166z"/>
   <path class="fil0" d="M9089 896c-26,61 -52,106 -77,136 -21,24 -49,36 -85,36 -7,0 -15,-1 -22,-2 -33,-5 -59,-22 -81,-52 -11,-17 -20,-33 -26,-49 -11,-27 -13,-62 -9,-107 -17,25 -48,60 -93,107 -25,21 -65,51 -121,87 -31,15 -58,22 -82,22 -23,0 -42,-6 -57,-17 -27,-22 -40,-49 -39,-82 2,-64 28,-122 80,-173 71,-72 146,-112 223,-121 4,-2 8,0 12,7 3,6 1,9 -6,9 -94,35 -161,76 -200,123 -15,15 -34,44 -57,84 -11,35 -11,63 0,84 6,10 15,16 27,18 42,6 79,-2 112,-24 66,-44 116,-83 152,-118 48,-48 86,-112 111,-193 6,-15 13,-18 23,-9 12,11 15,21 10,31 -6,14 -17,37 -32,68 -8,28 -12,47 -12,58 -11,57 -9,108 8,151 3,7 6,14 9,21 9,19 29,33 57,40 25,6 48,1 70,-15 38,-38 69,-81 94,-129 2,-2 4,-3 6,-1 6,3 8,6 5,10z"/>
   <path class="fil0" d="M7638 908c-38,61 -71,106 -100,133 -50,49 -102,72 -156,69 -32,-2 -55,-9 -71,-20 -24,-16 -39,-40 -44,-70 -10,-58 9,-128 57,-210 -28,-41 -45,-78 -52,-110 -21,37 -59,102 -113,196 -4,7 -9,6 -15,-4 -2,-4 -2,-9 -2,-13 6,-11 33,-61 79,-148 16,-31 34,-66 55,-104 9,-22 23,-25 41,-9 15,13 18,31 8,53 -4,13 -4,28 2,43 4,11 13,28 28,50 15,22 25,39 29,51 7,18 7,29 1,34 -21,16 -37,44 -48,82 -12,38 -15,69 -10,92 5,22 20,33 45,33 55,0 100,-15 135,-43 52,-43 90,-82 114,-115 2,-3 6,-3 12,0 6,3 8,6 5,10z"/>
   <path class="fil0" d="M7796 477c4,12 7,28 8,50 -6,19 -17,27 -30,24 -24,-5 -37,-19 -41,-42 0,-1 4,-15 12,-42l8 -16c3,-5 6,-8 10,-10 0,-4 3,-4 9,0 6,4 13,16 24,36z"/>
   <path class="fil0" d="M7937 916c-41,66 -73,110 -96,132 -27,25 -56,37 -87,35 -32,-2 -59,-10 -80,-24 -20,-15 -35,-34 -45,-59 -15,-39 -16,-81 -2,-127 6,-28 18,-70 35,-129 4,-13 12,-38 25,-74 3,-7 9,-18 18,-33 7,-14 21,-10 40,13 4,6 4,16 -1,29 -1,6 -4,17 -10,31 -37,98 -58,179 -61,245 -1,7 0,16 4,26 14,37 39,56 75,56 26,0 46,-6 59,-17 44,-36 80,-75 108,-115 3,-3 7,-3 12,0 7,3 8,6 6,11z"/>
   <path class="fil0" d="M7155 896c-26,61 -52,106 -78,136 -20,24 -48,36 -84,36 -8,0 -15,-1 -23,-2 -32,-5 -59,-22 -80,-52 -12,-17 -21,-33 -27,-49 -10,-27 -13,-62 -8,-107 -18,25 -49,60 -93,107 -25,21 -66,51 -122,87 -30,15 -57,22 -82,22 -23,0 -42,-6 -56,-17 -27,-22 -40,-49 -39,-82 1,-64 28,-122 79,-173 72,-72 146,-112 224,-121 3,-2 8,0 12,7 2,6 0,9 -6,9 -94,35 -161,76 -200,123 -16,15 -34,44 -57,84 -12,35 -12,63 0,84 5,10 14,16 27,18 41,6 79,-2 112,-24 65,-44 116,-83 152,-118 48,-48 85,-112 111,-193 5,-15 13,-18 22,-9 12,11 16,21 11,31 -7,14 -17,37 -32,68 -9,28 -12,47 -12,58 -12,57 -9,108 8,151 2,7 5,14 9,21 9,19 28,33 57,40 25,6 48,1 70,-15 37,-38 68,-81 94,-129 1,-2 3,-3 6,-1 5,3 7,6 5,10z"/>
   <path class="fil0" d="M6430 1090c-1,3 -4,6 -9,9 -2,2 -4,4 -5,5 -3,1 -5,2 -7,2 -3,0 -5,-1 -7,-3 0,0 0,0 0,0 0,0 -1,-1 -1,-2 -21,-29 -37,-65 -46,-108 -10,-43 -14,-94 -11,-151 0,-25 4,-65 11,-120 8,-55 17,-125 31,-211 0,0 0,0 0,0 8,-53 19,-110 33,-174 12,-57 27,-118 44,-183 -3,5 -6,10 -10,15 -7,12 -13,23 -20,35 -47,79 -88,159 -123,239 -36,79 -65,158 -89,237 0,0 0,0 0,0 -6,19 -11,39 -17,58 -1,5 -3,8 -6,12 -3,3 -6,6 -11,8 -6,3 -11,4 -15,3 -5,-1 -7,-5 -7,-12 0,0 0,0 0,0 0,-5 0,-11 0,-16 0,0 0,0 0,0 1,-31 -2,-63 -7,-98 -6,-35 -15,-73 -27,-112 0,0 0,0 0,0 -15,-50 -28,-92 -37,-126 -6,-23 -11,-42 -14,-58 -4,48 -9,96 -13,143 -6,56 -11,110 -17,164 0,0 0,0 0,0 -10,67 -25,131 -45,190 -20,59 -46,114 -76,166 -3,5 -51,83 -67,101 -58,66 -159,109 -235,101 -40,-5 -77,-17 -111,-37 -34,-20 -61,-55 -79,-85 -18,-30 -29,-66 -31,-106 0,0 0,0 0,-1 -2,-36 23,-90 43,-112 48,-53 98,-88 154,-108 56,-19 118,-22 191,-9 47,8 89,25 127,51 1,0 1,1 2,1 0,1 0,2 -1,2 -1,4 -1,7 -1,7 -1,0 -1,1 -2,1 -2,1 -4,2 -5,2 -3,1 -5,0 -6,-1 -35,-22 -74,-36 -117,-43 -67,-10 -121,-6 -168,13 -49,19 -91,53 -134,102 -43,45 -58,112 -13,175 41,59 95,88 149,96 55,8 110,-5 156,-32 38,-22 68,-69 108,-137 33,-56 59,-112 79,-168 20,-56 33,-113 40,-171 7,-60 14,-116 20,-168 6,-52 12,-99 17,-143 8,-72 16,-131 21,-174 0,0 0,0 0,0 1,-10 3,-20 5,-31 0,0 0,0 0,0 1,-6 3,-11 6,-15 3,-4 8,-7 13,-9 6,-2 11,-3 15,-3 3,0 5,1 6,2 2,2 3,4 4,7 0,2 0,4 -1,7 0,3 0,6 -1,9 0,0 0,0 0,0 -1,43 0,86 4,131 4,43 11,88 21,133 0,0 0,0 0,0 2,8 20,76 52,201 2,5 3,11 4,16 18,-57 41,-115 68,-176 29,-64 64,-130 104,-198 19,-32 39,-66 61,-100 22,-34 46,-68 70,-104 2,-5 5,-10 9,-13 4,-3 9,-5 15,-6 3,0 6,-1 8,0 2,0 4,1 6,3 1,2 2,4 2,7 0,0 0,0 0,0 0,2 0,6 -1,9 0,0 0,0 0,0 -2,5 -3,9 -5,13 -13,36 -25,73 -36,112 -10,39 -20,80 -28,122 0,1 0,1 0,1 -1,5 -6,28 -13,67 -6,37 -15,90 -27,158 0,0 0,0 0,0 -13,75 -23,139 -31,193 -7,53 -11,96 -12,128 -2,55 1,104 8,147 8,42 20,78 37,109 0,0 0,0 0,0 2,3 3,7 1,11 0,0 0,0 0,0zm-511 -291c1,1 2,1 3,1m-1 7c-1,-1 -2,-1 -3,-2m269 -47c0,0 0,0 0,0"/>
   <path class="fil0" d="M288 708l-117 0 0 351 -55 0 0 -351 -116 0 0 -49 288 0 0 49zm388 351l-55 0 0 -183 -225 0 0 183 -55 0 0 -400 55 0 0 165 225 0 0 -165 55 0 0 400zm340 0l-249 0 0 -400 244 0 0 49 -189 0 0 117 150 0 0 49 -150 0 0 136 194 0 0 49zm253 -140l0 140 -57 0 0 -400 127 0c19,0 37,2 54,5 16,2 31,8 44,17 13,9 23,22 30,38 8,17 12,38 12,65 0,26 -4,47 -12,64 -8,18 -18,32 -30,42 -12,11 -25,18 -40,22 -14,5 -28,7 -42,7l-86 0zm0 -212l0 164 76 0c28,0 48,-7 60,-22 11,-15 17,-36 17,-63 0,-14 -1,-26 -4,-37 -3,-10 -9,-18 -16,-24 -7,-6 -17,-11 -29,-14 -12,-2 -26,-4 -44,-4l-60 0zm584 303c-36,38 -84,57 -141,57 -29,0 -56,-5 -80,-15 -24,-10 -45,-24 -62,-42 -18,-18 -31,-40 -41,-65 -9,-26 -14,-54 -14,-86 0,-32 5,-60 15,-86 9,-25 23,-47 40,-65 18,-18 38,-32 63,-42 24,-10 50,-15 79,-15 28,0 54,5 79,15 24,10 45,24 62,42 18,19 31,40 41,66 10,25 14,54 14,85 0,63 -18,113 -55,151zm-40 -265c-23,-30 -57,-45 -101,-45 -23,0 -42,4 -59,12 -17,8 -32,19 -43,33 -12,15 -21,31 -27,51 -6,19 -9,40 -9,63 0,23 3,44 9,63 6,20 15,37 27,51 11,14 26,25 43,33 17,8 36,12 59,12 22,0 41,-4 58,-12 17,-8 32,-19 44,-34 12,-14 20,-31 26,-50 6,-19 9,-40 9,-63 0,-46 -12,-84 -36,-114zm451 314l-58 0 -89 -156 -84 0 0 156 -57 0 0 -400 130 0c22,0 42,2 59,7 17,4 32,10 43,20 12,9 21,21 27,36 6,15 9,33 9,54 0,25 -6,48 -19,67 -13,20 -31,35 -54,46l93 170zm-159 -356l-72 0 0 147 87 0c9,0 17,-1 26,-4 8,-3 15,-8 21,-14 7,-6 11,-14 15,-23 4,-9 6,-20 6,-33 0,-23 -7,-41 -21,-54 -14,-12 -34,-19 -62,-19zm459 5l-117 0 0 351 -55 0 0 -351 -116 0 0 -49 288 0 0 49zm297 0l-189 0 0 117 146 0 0 49 -146 0 0 185 -55 0 0 -400 244 0 0 49zm365 302c-36,38 -83,57 -141,57 -29,0 -56,-5 -80,-15 -24,-10 -45,-24 -62,-42 -17,-18 -31,-40 -41,-65 -9,-26 -14,-54 -14,-86 0,-32 5,-60 15,-86 10,-25 23,-47 40,-65 18,-18 38,-32 63,-42 24,-10 50,-15 79,-15 28,0 55,5 79,15 24,10 45,24 62,42 18,19 31,40 41,66 10,25 15,54 15,85 0,63 -19,113 -56,151zm-40 -265c-23,-30 -57,-45 -101,-45 -22,0 -42,4 -59,12 -17,8 -32,19 -43,33 -12,15 -21,31 -27,51 -6,19 -9,40 -9,63 0,23 3,44 9,63 6,20 15,37 27,51 11,14 26,25 43,33 17,8 37,12 59,12 22,0 41,-4 58,-12 18,-8 32,-19 44,-34 12,-14 20,-31 26,-50 6,-19 9,-40 9,-63 0,-46 -12,-84 -36,-114zm401 314l-238 0 0 -400 55 0 0 351 183 0 0 49zm103 0l-55 0 0 -400 55 0 0 400zm406 -49c-37,38 -84,57 -142,57 -28,0 -55,-5 -79,-15 -24,-10 -45,-24 -62,-42 -18,-18 -31,-40 -41,-65 -10,-26 -14,-54 -14,-86 0,-32 4,-60 14,-86 10,-25 24,-47 41,-65 18,-18 38,-32 62,-42 25,-10 51,-15 79,-15 29,0 55,5 79,15 25,10 45,24 63,42 17,19 31,40 41,66 9,25 14,54 14,85 0,63 -18,113 -55,151zm-40 -265c-24,-30 -57,-45 -102,-45 -22,0 -41,4 -58,12 -17,8 -32,19 -43,33 -12,15 -21,31 -27,51 -6,19 -9,40 -9,63 0,23 3,44 9,63 6,20 15,37 27,51 11,14 26,25 43,33 17,8 36,12 58,12 23,0 42,-4 59,-12 17,-8 32,-19 44,-34 11,-14 20,-31 26,-50 6,-19 9,-40 9,-63 0,-46 -12,-84 -36,-114zm607 265c-37,38 -84,57 -142,57 -29,0 -55,-5 -79,-15 -25,-10 -45,-24 -63,-42 -17,-18 -30,-40 -40,-65 -10,-26 -15,-54 -15,-86 0,-32 5,-60 15,-86 10,-25 24,-47 41,-65 17,-18 38,-32 62,-42 24,-10 51,-15 79,-15 29,0 55,5 79,15 24,10 45,24 63,42 17,19 31,40 40,66 10,25 15,54 15,85 0,63 -18,113 -55,151zm-40 -265c-24,-30 -58,-45 -102,-45 -22,0 -42,4 -59,12 -17,8 -31,19 -43,33 -11,15 -20,31 -26,51 -6,19 -9,40 -9,63 0,23 3,44 9,63 6,20 15,37 26,51 12,14 26,25 43,33 17,8 37,12 59,12 22,0 42,-4 59,-12 17,-8 32,-19 43,-34 12,-14 21,-31 27,-50 6,-19 9,-40 9,-63 0,-46 -12,-84 -36,-114zm407 -37l-189 0 0 117 145 0 0 49 -145 0 0 185 -55 0 0 -400 244 0 0 49zm185 343c0,-3 0,-8 0,-16 1,-7 1,-16 2,-24 0,-9 1,-17 1,-25 1,-8 1,-14 1,-18 0,-21 -3,-38 -9,-51 -6,-13 -17,-24 -32,-34 14,-10 25,-21 31,-34 7,-13 10,-30 10,-51 0,-3 0,-9 -1,-17 0,-8 -1,-17 -1,-25 -1,-9 -1,-17 -2,-24 0,-8 0,-13 0,-16 0,-27 9,-47 27,-62 19,-14 50,-22 95,-23l0 39c-20,0 -36,3 -47,6 -11,4 -19,10 -24,18 -4,7 -7,17 -8,29 -1,12 -2,27 -2,45 0,2 0,5 1,9 0,5 0,10 0,15 0,5 0,10 1,14 0,5 0,8 0,11 0,6 -1,13 -2,19 -1,6 -4,11 -7,16 -4,5 -8,10 -14,15 -7,5 -15,11 -24,16 9,6 18,11 24,15 6,5 11,10 14,15 4,4 6,10 7,15 1,5 2,11 2,17 0,2 0,5 0,10 -1,5 -1,10 -1,15 0,6 0,11 0,17 -1,5 -1,9 -1,12 0,20 1,37 3,49 1,12 5,22 10,28 6,7 14,12 24,15 11,2 25,4 44,5l0 40c-44,-2 -75,-9 -94,-23 -19,-14 -28,-35 -28,-62z"/>
   <path class="fil0" d="M14371 1051c0,27 -10,48 -28,62 -19,14 -51,21 -94,23l0 -40c20,0 36,-2 47,-6 11,-4 19,-10 24,-18 4,-8 7,-18 8,-30 1,-12 1,-27 1,-43 0,-3 0,-7 0,-12 0,-5 -1,-11 -1,-16 0,-6 0,-11 0,-15 0,-5 -1,-9 -1,-11 0,-6 1,-12 2,-18 2,-5 4,-10 8,-15 3,-4 8,-9 14,-14 6,-4 14,-9 24,-15 -10,-5 -18,-11 -24,-16 -6,-5 -11,-10 -14,-15 -4,-5 -6,-10 -8,-16 -1,-6 -2,-13 -2,-19 0,-3 1,-6 1,-11 0,-4 0,-9 0,-14 0,-5 1,-10 1,-15 0,-4 0,-7 0,-9 0,-21 -1,-37 -2,-49 -2,-13 -5,-22 -11,-29 -5,-7 -13,-12 -24,-14 -11,-3 -25,-5 -43,-6l0 -39c44,1 76,9 94,23 19,15 28,35 28,62 0,3 0,8 -1,16 -1,7 -1,15 -2,24 0,8 -1,17 -1,25 -1,8 -1,14 -1,17 0,21 3,38 10,51 6,13 17,24 31,34 -15,10 -26,21 -32,34 -6,13 -9,30 -9,51 0,4 0,10 1,18 0,8 1,16 1,25 1,8 1,17 2,24 1,8 1,13 1,16z"/>
   <path class="fil0" d="M8480 836c4,2 -36,55 -39,60 -20,33 -13,27 -58,85 -51,64 -119,140 -204,227 -28,162 -45,259 -72,372 -47,199 -84,288 -156,363 -19,20 -40,28 -57,28 -41,0 -70,-21 -88,-64 -23,-56 -26,-123 -12,-202 34,-182 150,-321 275,-451 19,-19 46,-48 82,-85 14,-82 28,-155 62,-317 -65,116 -137,176 -213,180 -17,1 -33,-4 -48,-15 -15,-12 -25,-25 -29,-41 -10,-36 -9,-90 5,-161 10,-53 21,-94 33,-125 5,-11 11,-21 20,-29 5,-5 13,-6 22,-3 2,3 5,6 8,10 8,11 9,25 5,42 -12,40 -20,72 -25,94 -12,57 -17,106 -15,148 0,7 3,14 8,22 6,8 13,12 21,12 81,-4 162,-109 243,-314 2,-6 6,-9 12,-9 9,0 15,5 19,15 1,4 1,8 0,12 -25,116 -48,229 -88,438 46,-44 100,-97 164,-159 53,-52 93,-95 117,-132 2,-2 4,-3 8,-1zm-346 413c-10,11 -24,26 -42,45 -131,131 -316,366 -242,562 4,11 9,21 15,28 6,8 14,13 27,14 13,1 22,-3 29,-11 69,-69 105,-142 149,-320 24,-96 39,-175 64,-318z"/>
  </g>
 </g>
</svg>
